<?xml version="1.0" encoding="UTF-8"?>
<!DOCTYPE svg PUBLIC "-//W3C//DTD SVG 1.1//EN" "http://www.w3.org/Graphics/SVG/1.1/DTD/svg11.dtd">
<svg xmlns="http://www.w3.org/2000/svg" version="1.1" width="833px" height="831px" style="shape-rendering:geometricPrecision; text-rendering:geometricPrecision; image-rendering:optimizeQuality; fill-rule:evenodd; clip-rule:evenodd" xmlns:xlink="http://www.w3.org/1999/xlink">
<g><path style="opacity:0.867" fill="#1e1e1e" d="M 62.5,-0.5 C 297.833,-0.5 533.167,-0.5 768.5,-0.5C 803.242,9.57451 824.575,32.2412 832.5,67.5C 832.5,244.167 832.5,420.833 832.5,597.5C 818.654,517.324 774.32,461.157 699.5,429C 621.183,401.934 550.183,414.601 486.5,467C 423.985,526.563 403.152,598.396 424,682.5C 451.343,764.357 507.176,813.69 591.5,830.5C 414.5,830.5 237.5,830.5 60.5,830.5C 41.3282,824.525 25.4949,813.525 13,797.5C 9.72195,792.05 6.88862,786.383 4.5,780.5C 3.1049,776.41 1.77157,772.41 0.5,768.5C 0.737305,767.209 0.403972,766.209 -0.5,765.5C -0.5,532.5 -0.5,299.5 -0.5,66.5C 7.70755,32.2117 28.7075,9.87838 62.5,-0.5 Z"/></g>
<g><path style="opacity:0.867" fill="#cecece" d="M 579.5,151.5 C 593.1,150.37 606.1,152.537 618.5,158C 623.815,161.795 626.648,166.962 627,173.5C 627.667,189.5 627.667,205.5 627,221.5C 626.512,230.658 622.012,236.825 613.5,240C 599.354,243.798 585.02,244.465 570.5,242C 561.596,240.096 555.429,234.929 552,226.5C 550.887,216.89 550.387,207.223 550.5,197.5C 550.387,187.777 550.887,178.11 552,168.5C 554.055,163.112 557.555,158.946 562.5,156C 568.087,153.688 573.754,152.188 579.5,151.5 Z"/></g>
<g><path style="opacity:0.867" fill="#d0d0d0" d="M 200.5,193.5 C 188.833,193.5 177.167,193.5 165.5,193.5C 165.5,229.833 165.5,266.167 165.5,302.5C 165.489,304.017 164.823,305.184 163.5,306C 148.833,306.667 134.167,306.667 119.5,306C 118.333,305.5 117.5,304.667 117,303.5C 116.5,267.168 116.333,230.835 116.5,194.5C 104.829,194.667 93.1619,194.5 81.5,194C 80.0692,193.535 78.9025,192.701 78,191.5C 77.3333,179.833 77.3333,168.167 78,156.5C 78.5,154.667 79.6667,153.5 81.5,153C 121.893,152.017 162.226,152.351 202.5,154C 203.333,154.833 204.167,155.667 205,156.5C 205.667,167.5 205.667,178.5 205,189.5C 204.252,191.751 202.752,193.084 200.5,193.5 Z"/></g>
<g><path style="opacity:0.867" fill="#d0d0d0" d="M 324.5,193.5 C 316.5,193.5 308.5,193.5 300.5,193.5C 300.5,217.833 300.5,242.167 300.5,266.5C 308.167,266.5 315.833,266.5 323.5,266.5C 326.292,266.452 328.125,267.785 329,270.5C 329.667,280.833 329.667,291.167 329,301.5C 328.727,303.329 327.893,304.829 326.5,306C 292.833,306.667 259.167,306.667 225.5,306C 224.107,304.829 223.273,303.329 223,301.5C 222.333,290.833 222.333,280.167 223,269.5C 224.214,267.951 225.714,266.785 227.5,266C 235.493,265.5 243.493,265.334 251.5,265.5C 251.5,241.833 251.5,218.167 251.5,194.5C 243.16,194.666 234.827,194.5 226.5,194C 225.667,193.167 224.833,192.333 224,191.5C 222.377,179.93 222.043,168.264 223,156.5C 224.214,154.951 225.714,153.785 227.5,153C 260.561,152.021 293.561,152.355 326.5,154C 327.701,154.903 328.535,156.069 329,157.5C 329.667,168.167 329.667,178.833 329,189.5C 328.252,191.751 326.752,193.084 324.5,193.5 Z"/></g>
<g><path style="opacity:0.867" fill="#d0d0d0" d="M 359.5,152.5 C 386.169,152.333 412.835,152.5 439.5,153C 462.022,153.984 475.188,165.484 479,187.5C 479.667,200.833 479.667,214.167 479,227.5C 475.827,251.001 462.327,262.835 438.5,263C 427.172,263.5 415.838,263.667 404.5,263.5C 404.667,276.504 404.5,289.504 404,302.5C 403.626,303.416 403.126,304.25 402.5,305C 387.927,306.633 373.26,306.966 358.5,306C 357.667,305.167 356.833,304.333 356,303.5C 355.333,254.5 355.333,205.5 356,156.5C 357.102,155.051 358.269,153.718 359.5,152.5 Z"/></g>
<g><path style="opacity:0.867" fill="#cfcfcf" d="M 657.5,152.5 C 667.58,152.077 677.58,152.577 687.5,154C 688.894,154.956 689.561,156.289 689.5,158C 681,193.167 672.5,228.333 664,263.5C 660.546,277.488 656.713,291.322 652.5,305C 641.598,306.62 630.598,306.954 619.5,306C 617.643,304.818 616.643,303.151 616.5,301C 628.721,253.283 640.554,205.45 652,157.5C 653.406,155.256 655.239,153.59 657.5,152.5 Z"/></g>
<g><path style="opacity:0.867" fill="#242424" d="M 583.5,180.5 C 587.182,180.335 590.848,180.501 594.5,181C 595,181.5 595.5,182 596,182.5C 596.667,192.5 596.667,202.5 596,212.5C 595.5,213 595,213.5 594.5,214C 590.833,214.667 587.167,214.667 583.5,214C 583,213.5 582.5,213 582,212.5C 581.333,202.5 581.333,192.5 582,182.5C 582.717,181.956 583.217,181.289 583.5,180.5 Z"/></g>
<g><path style="opacity:0.867" fill="#484848" d="M 425.5,193.5 C 418.5,193.5 411.5,193.5 404.5,193.5C 404.5,203.833 404.5,214.167 404.5,224.5C 411.833,224.5 419.167,224.5 426.5,224.5C 419.018,225.492 411.352,225.825 403.5,225.5C 403.5,214.5 403.5,203.5 403.5,192.5C 411.019,192.175 418.352,192.508 425.5,193.5 Z"/></g>
<g><path style="opacity:0.867" fill="#1e1e1e" d="M 425.5,193.5 C 428.263,193.744 430.429,195.077 432,197.5C 432.667,204.833 432.667,212.167 432,219.5C 431.248,222.421 429.415,224.087 426.5,224.5C 419.167,224.5 411.833,224.5 404.5,224.5C 404.5,214.167 404.5,203.833 404.5,193.5C 411.5,193.5 418.5,193.5 425.5,193.5 Z"/></g>
<g><path style="opacity:0.867" fill="#a0a0a0" d="M 200.5,193.5 C 189.346,194.495 178.012,194.828 166.5,194.5C 166.832,230.671 166.498,266.671 165.5,302.5C 165.5,266.167 165.5,229.833 165.5,193.5C 177.167,193.5 188.833,193.5 200.5,193.5 Z"/></g>
<g><path style="opacity:0.867" fill="#5c5c5c" d="M 324.5,193.5 C 317.018,194.492 309.352,194.825 301.5,194.5C 301.5,218.167 301.5,241.833 301.5,265.5C 309.019,265.175 316.352,265.508 323.5,266.5C 315.833,266.5 308.167,266.5 300.5,266.5C 300.5,242.167 300.5,217.833 300.5,193.5C 308.5,193.5 316.5,193.5 324.5,193.5 Z"/></g>
<g><path style="opacity:0.867" fill="#d0d0d0" d="M 703.5,216.5 C 713.541,216.244 723.541,216.744 733.5,218C 744.004,219.19 750.838,224.69 754,234.5C 754.667,252.833 754.667,271.167 754,289.5C 750.57,300.989 742.737,306.822 730.5,307C 720.167,307.667 709.833,307.667 699.5,307C 688.881,305.049 682.048,298.882 679,288.5C 678.833,280 678.667,271.5 678.5,263C 678.399,252.786 678.899,242.619 680,232.5C 685.024,223.069 692.857,217.736 703.5,216.5 Z"/></g>
<g><path style="opacity:0.867" fill="#212121" d="M 711.5,245.5 C 715.437,245.207 719.27,245.54 723,246.5C 723.82,257.41 723.653,268.243 722.5,279C 718.833,279.667 715.167,279.667 711.5,279C 711,278.5 710.5,278 710,277.5C 709.333,267.5 709.333,257.5 710,247.5C 710.717,246.956 711.217,246.289 711.5,245.5 Z"/></g>
<g><path style="opacity:0.867" fill="#fe8a00" d="M 832.5,597.5 C 832.5,614.833 832.5,632.167 832.5,649.5C 821.704,718.614 786.37,771.114 726.5,807C 705.212,818.193 682.878,826.026 659.5,830.5C 636.833,830.5 614.167,830.5 591.5,830.5C 507.176,813.69 451.343,764.357 424,682.5C 403.152,598.396 423.985,526.563 486.5,467C 550.183,414.601 621.183,401.934 699.5,429C 774.32,461.157 818.654,517.324 832.5,597.5 Z"/></g>
<g><path style="opacity:0.867" fill="#4a4a4a" d="M 201.5,516.5 C 215.171,516.333 228.837,516.5 242.5,517C 243.701,517.903 244.535,519.069 245,520.5C 245.499,525.489 245.666,530.489 245.5,535.5C 253.84,535.334 262.173,535.5 270.5,536C 271.333,536.833 272.167,537.667 273,538.5C 273.958,550.596 273.625,562.596 272,574.5C 270.933,575.191 269.766,575.691 268.5,576C 250.167,576.333 231.833,576.667 213.5,577C 210.039,579.987 209.539,583.487 212,587.5C 212.75,588.126 213.584,588.626 214.5,589C 226.488,590.76 238.488,592.427 250.5,594C 275.774,598.659 286.107,613.826 281.5,639.5C 285.414,667.879 273.414,684.212 245.5,688.5C 245.666,693.511 245.499,698.511 245,703.5C 244.535,704.931 243.701,706.097 242.5,707C 235.768,708.13 228.935,708.63 222,708.5C 215.065,708.63 208.232,708.13 201.5,707C 201,706.5 200.5,706 200,705.5C 199.501,700.177 199.334,694.844 199.5,689.5C 187.732,689.957 176.065,689.457 164.5,688C 164,687.5 163.5,687 163,686.5C 162.333,674.833 162.333,663.167 163,651.5C 163.903,650.299 165.069,649.465 166.5,649C 187.5,648.667 208.5,648.333 229.5,648C 230.667,647.5 231.5,646.667 232,645.5C 232.667,643.167 232.667,640.833 232,638.5C 231.5,637.333 230.667,636.5 229.5,636C 216.201,633.814 202.867,631.814 189.5,630C 181.746,628.2 174.913,624.7 169,619.5C 166.196,615.557 164.196,611.223 163,606.5C 162.333,591.5 162.333,576.5 163,561.5C 169.413,544.941 181.58,536.274 199.5,535.5C 199.334,529.824 199.501,524.157 200,518.5C 200.717,517.956 201.217,517.289 201.5,516.5 Z"/></g>
<g><path style="opacity:0.867" fill="#ffe7cb" d="M 565.5,570.5 C 605.501,570.333 645.501,570.5 685.5,571C 686.333,571.833 687.167,572.667 688,573.5C 688.667,584.5 688.667,595.5 688,606.5C 687.5,607.667 686.667,608.5 685.5,609C 645.167,609.667 604.833,609.667 564.5,609C 563.299,608.097 562.465,606.931 562,605.5C 561.333,595.5 561.333,585.5 562,575.5C 562.257,573.093 563.424,571.427 565.5,570.5 Z"/></g>
<g><path style="opacity:0.867" fill="#ffe6c9" d="M 565.5,634.5 C 605.501,634.333 645.501,634.5 685.5,635C 686.333,635.833 687.167,636.667 688,637.5C 688.667,648.5 688.667,659.5 688,670.5C 687.5,672.333 686.333,673.5 684.5,674C 645.167,674.667 605.833,674.667 566.5,674C 564.333,673.167 562.833,671.667 562,669.5C 561.333,659.5 561.333,649.5 562,639.5C 562.997,637.677 564.164,636.01 565.5,634.5 Z"/></g>
<g><path style="opacity:0.867" fill="#e5e5e5" d="M 0.5,768.5 C 1.77157,772.41 3.1049,776.41 4.5,780.5C 1.07467,777.313 -0.258667,773.313 0.5,768.5 Z"/></g>
</svg>
